<svg width="304" height="209" viewBox="0 0 304 209" fill="none" xmlns="http://www.w3.org/2000/svg">
<path d="M300.898 0.661377H3.10202C1.56013 0.661377 0.310181 3.32642 0.310181 6.61391V202.386C0.310181 205.674 1.56013 208.339 3.10202 208.339H300.898C302.44 208.339 303.689 205.674 303.689 202.386V6.61391C303.689 3.32642 302.44 0.661377 300.898 0.661377Z" fill="url(#paint0_linear_205_136)"/>
<path d="M300.898 0.661377H3.10202C1.56013 0.661377 0.310181 3.32642 0.310181 6.61391V202.386C0.310181 205.674 1.56013 208.339 3.10202 208.339H300.898C302.44 208.339 303.689 205.674 303.689 202.386V6.61391C303.689 3.32642 302.44 0.661377 300.898 0.661377Z" stroke="#7E7E7E"/>
<path d="M293.69 199.5H10.3096C8.65174 199.5 7.30771 196.634 7.30771 193.1V15.1697C7.30771 11.6349 8.65174 8.76929 10.3096 8.76929H49.0343H53.237H102.468H106.971H111.774H132.788H293.69C295.348 8.76929 296.692 11.6349 296.692 15.1697V193.1C296.692 196.634 295.348 199.5 293.69 199.5Z" fill="#D9D9D9" stroke="#7E7E7E"/>
<path d="M291.54 30.6924H10.9986C10.1709 30.6924 9.5 32.321 9.5 34.3299V190.016C9.5 192.025 10.1709 193.654 10.9986 193.654H291.54C292.368 193.654 293.038 192.025 293.038 190.016V34.3299C293.038 32.321 292.368 30.6924 291.54 30.6924Z" fill="#A8D0E6" stroke="#7E7E7E"/>
<path d="M63.5769 31.4231H12.4231C11.2123 31.4231 10.2308 32.4046 10.2308 33.6154V190.731C10.2308 191.942 11.2123 192.923 12.4231 192.923H63.5769C64.7877 192.923 65.7692 191.942 65.7692 190.731V33.6154C65.7692 32.4046 64.7877 31.4231 63.5769 31.4231Z" fill="#FEE9E7"/>
<path d="M72.1374 13.8845H262.555C265.669 13.8845 268.192 16.1748 268.192 18.9999C268.192 21.8251 265.669 24.1153 262.555 24.1153H72.1374C69.0236 24.1153 66.5 21.8251 66.5 18.9999C66.5 16.1748 69.0236 13.8845 72.1374 13.8845Z" fill="#FEE9E7" stroke="#7E7E7E"/>
<path d="M13.5192 15.4333C11.7031 15.4333 10.2308 17.0302 10.2308 18.9999C10.2308 20.9698 11.7031 22.5666 13.5192 22.5666C15.3354 22.5666 16.8077 20.9698 16.8077 18.9999C16.8077 17.0302 15.3354 15.4333 13.5192 15.4333Z" fill="#F76C6C" stroke="#7E7E7E"/>
<path d="M23.0192 15.4333C21.2031 15.4333 19.7308 17.0302 19.7308 18.9999C19.7308 20.9698 21.2031 22.5666 23.0192 22.5666C24.8354 22.5666 26.3077 20.9698 26.3077 18.9999C26.3077 17.0302 24.8354 15.4333 23.0192 15.4333Z" fill="#F8E9A1" stroke="#7E7E7E"/>
<path d="M33.25 15.4333C31.4338 15.4333 29.9615 17.0302 29.9615 18.9999C29.9615 20.9698 31.4338 22.5666 33.25 22.5666C35.0662 22.5666 36.5385 20.9698 36.5385 18.9999C36.5385 17.0302 35.0662 15.4333 33.25 15.4333Z" fill="#A8D0E6" stroke="#7E7E7E"/>
<path d="M52.7898 21.9231C52.7553 21.9231 52.7217 21.9163 52.6929 21.9036C52.6642 21.8909 52.6419 21.8729 52.6287 21.8517C52.6155 21.8305 52.612 21.8072 52.6188 21.7848C52.6255 21.7624 52.6421 21.7418 52.6665 21.7255L56.5661 19.1374C56.6207 19.1008 56.6514 19.0514 56.6514 18.9999C56.6514 18.9484 56.6207 18.899 56.5661 18.8625L52.6665 16.2744C52.6338 16.2527 52.6155 16.2233 52.6155 16.1926C52.6155 16.1619 52.6339 16.1324 52.6666 16.1107C52.6993 16.0891 52.7436 16.0769 52.7898 16.0769C52.8361 16.0769 52.8804 16.0891 52.9131 16.1108L56.8126 18.6989C56.9326 18.7789 57 18.8871 57 19C57 19.1128 56.9326 19.221 56.8126 19.301L52.913 21.8892C52.8803 21.9109 52.836 21.9231 52.7898 21.9231Z" fill="#7E7E7E"/>
<path d="M47.3256 16.0769C47.3601 16.0769 47.3937 16.0837 47.4225 16.0964C47.4512 16.1091 47.4735 16.1272 47.4867 16.1483C47.4999 16.1695 47.5034 16.1927 47.4966 16.2152C47.4899 16.2376 47.4733 16.2582 47.4489 16.2744L43.5493 18.8627C43.4947 18.8992 43.464 18.9486 43.464 19.0001C43.464 19.0516 43.4947 19.101 43.5493 19.1375L47.4489 21.7255C47.4816 21.7473 47.4999 21.7767 47.4999 21.8074C47.4999 21.8381 47.4815 21.8675 47.4488 21.8892C47.4161 21.9109 47.3718 21.9231 47.3256 21.9231C47.2793 21.9231 47.235 21.9109 47.2023 21.8892L43.3028 19.3011C43.1828 19.2212 43.1154 19.1129 43.1154 19.0001C43.1154 18.8872 43.1828 18.7789 43.3028 18.699L47.2024 16.1107C47.2351 16.0891 47.2794 16.0769 47.3256 16.0769Z" fill="#7E7E7E"/>
<mask id="mask1_205_136" style="mask-type:luminance" maskUnits="userSpaceOnUse" x="69" y="15" width="9" height="9">
<path d="M77.4835 15.1042H69.5795V23.5329H77.4835V15.1042Z" fill="white"/>
</mask>
<g mask="url(#mask1_205_136)">
<path d="M77.1746 21.6663L75.2249 19.6216C75.409 19.2106 75.5113 18.7506 75.5113 18.265C75.5113 16.5195 74.1842 15.1042 72.5476 15.1042C70.9108 15.1042 69.5835 16.5195 69.5835 18.265C69.5835 20.0105 70.9108 21.4257 72.5476 21.4257C72.9988 21.4257 73.4264 21.3179 73.8094 21.1254L75.7298 23.2069C76.1266 23.6388 76.7799 23.642 77.1811 23.2138C77.5823 22.7858 77.5794 22.0903 77.1746 21.6663ZM70.2422 18.265C70.2422 16.9073 71.2743 15.8067 72.5476 15.8067C73.821 15.8067 74.8529 16.9073 74.8529 18.265C74.8529 18.7045 74.744 19.117 74.5555 19.474C74.5474 19.4848 74.5401 19.4962 74.5335 19.5082C74.3319 19.8725 74.0469 20.1758 73.7049 20.3881C73.6946 20.3947 73.6844 20.402 73.6749 20.4095C73.3409 20.6092 72.9566 20.7233 72.5476 20.7233C71.2743 20.7233 70.2422 19.6226 70.2422 18.265ZM76.7149 22.7172C76.5731 22.8693 76.3407 22.8681 76.1997 22.7147L74.383 20.7462C74.5628 20.5952 74.725 20.4225 74.8675 20.2318L76.7127 22.1672C76.8567 22.318 76.8574 22.5653 76.7149 22.7172Z" fill="#7E7E7E"/>
</g>
<path d="M283.618 16.6346C283.564 16.5734 283.538 16.4956 283.538 16.4014C283.538 16.3071 283.564 16.2293 283.618 16.168C283.672 16.1068 283.741 16.0769 283.823 16.0769H289.83C289.913 16.0769 289.981 16.1068 290.035 16.168C290.089 16.2293 290.115 16.3071 290.115 16.4014C290.115 16.4956 290.089 16.5734 290.035 16.6346C289.981 16.6959 289.913 16.7258 289.83 16.7258H283.823C283.741 16.7258 283.672 16.6959 283.618 16.6346ZM290.035 18.7675C290.089 18.8287 290.115 18.9065 290.115 19.0008C290.115 19.0951 290.089 19.1728 290.035 19.2341C289.981 19.2954 289.913 19.3252 289.83 19.3252H283.823C283.741 19.3252 283.672 19.2954 283.618 19.2341C283.564 19.1728 283.538 19.0951 283.538 19.0008C283.538 18.9065 283.564 18.8287 283.618 18.7675C283.672 18.7062 283.741 18.6763 283.823 18.6763H289.83C289.913 18.6763 289.981 18.7062 290.035 18.7675ZM290.035 21.3653C290.089 21.4265 290.115 21.5043 290.115 21.5986C290.115 21.6928 290.089 21.7706 290.035 21.8319C289.981 21.8932 289.913 21.9231 289.83 21.9231H283.823C283.741 21.9231 283.672 21.8932 283.618 21.8319C283.564 21.7706 283.538 21.6928 283.538 21.5986C283.538 21.5043 283.564 21.4265 283.618 21.3653C283.672 21.304 283.741 21.2741 283.823 21.2741H289.83C289.913 21.2741 289.981 21.3054 290.035 21.3653Z" fill="#7E7E7E"/>
<mask id="mask2_205_136" style="mask-type:luminance" maskUnits="userSpaceOnUse" x="270" y="15" width="9" height="8">
<path d="M278.066 15.1042H270.778V22.8755H278.066V15.1042Z" fill="white"/>
</mask>
<g mask="url(#mask2_205_136)">
<path fill-rule="evenodd" clip-rule="evenodd" d="M271.677 18.9899C271.677 17.521 272.751 16.0628 274.422 16.0628C275.772 16.0628 276.439 17.1281 276.723 17.6947H275.879C275.746 17.6947 275.637 17.8107 275.637 17.9537C275.637 18.0968 275.746 18.2128 275.879 18.2128H277.337C277.471 18.2128 277.58 18.0968 277.58 17.9537V16.3995C277.58 16.2564 277.471 16.1405 277.337 16.1405C277.203 16.1405 277.094 16.2564 277.094 16.3995V17.3389C276.752 16.6955 275.96 15.5447 274.422 15.5447C272.448 15.5447 271.191 17.2727 271.191 18.9899C271.191 20.7071 272.448 22.4352 274.422 22.4352C275.366 22.4352 276.153 22.0366 276.712 21.4293C277.012 21.104 277.246 20.7198 277.406 20.3062C277.457 20.174 277.398 20.0225 277.274 19.9681C277.149 19.9137 277.008 19.9768 276.957 20.1091C276.82 20.4625 276.62 20.79 276.366 21.0661C275.894 21.5784 275.231 21.9171 274.422 21.9171C272.751 21.9171 271.677 20.4589 271.677 18.9899Z" fill="#7E7E7E"/>
</g>
<path d="M48.6961 53.6444L50.0801 54.198L48.1275 56.1505L44.9761 57.3645L48.6961 53.6444ZM40.4668 63.8099L43.3469 60.9297L42.3782 59.961L39.4981 62.8411L40.4668 63.8099ZM42.2549 51.0603L40.871 50.5067L30.067 61.3107C30.2533 61.7793 30.437 62.241 30.6178 62.6973L42.2549 51.0603ZM42.2385 65.5815L43.2072 66.5503L46.0873 63.6701L45.1186 62.7014L42.2385 65.5815ZM44.9802 68.3219L45.9489 69.2907L48.8264 66.4133L47.8576 65.4445L44.9802 68.3219ZM33.7405 70.5375L35.7026 68.5754L36.9234 65.4171L33.1897 69.1509C33.3952 69.6675 33.5802 70.1347 33.7405 70.5375ZM34.4242 47.9307L33.0403 47.3772L26.9457 53.4718C27.128 53.9281 27.3116 54.3898 27.4979 54.857L34.4242 47.9307ZM38.3362 49.4996L36.9522 48.9461L28.5105 57.3878C28.6941 57.8509 28.8791 58.3127 29.0627 58.7731L38.3362 49.4996ZM26.5977 44.7957L25.2138 44.2422L23.808 45.6467C23.9779 46.0659 24.1629 46.5236 24.3657 47.0264L26.5977 44.7957ZM31.629 65.2308C31.8181 65.7076 32.0031 66.1734 32.1799 66.6174L46.164 52.6332L44.7802 52.0797L31.629 65.2308ZM30.5109 46.3632L29.1271 45.8097L25.3796 49.5571C25.5591 50.0052 25.7427 50.4656 25.9332 50.9411L30.5109 46.3632Z" fill="#A8D0E6"/>
<path d="M51.6106 54.8078L41.2204 58.8047L50.1718 67.7561L47.2944 70.6335L38.343 61.6821L34.3462 72.0722C34.3462 72.0722 23.016 43.4776 22.8365 43.2982L51.6106 54.8078ZM22.8365 41.928C22.3542 41.928 21.9528 42.1499 21.6924 42.5445C21.4061 42.9775 21.3951 43.5243 21.6376 43.9613C22.1665 45.1178 28.7406 61.645 33.0732 72.5778C33.2787 73.0997 33.7843 73.4424 34.3462 73.4424C35.0258 73.4424 35.4217 73.0902 35.6245 72.5641L38.8636 64.1415L46.3243 71.6023C46.5915 71.8694 46.9423 72.0037 47.293 72.0037C47.6438 72.0037 47.9946 71.8694 48.2618 71.6023L51.1392 68.7248C51.675 68.189 51.675 67.3218 51.1392 66.7874L43.6785 59.3266L52.1011 56.0875C52.6272 55.8847 52.9753 55.3819 52.9794 54.8174C52.9835 54.2542 52.641 53.7459 52.1175 53.5362L23.3435 42.0266C23.1791 41.9595 22.9584 41.928 22.8365 41.928Z" fill="#374785"/>
<path d="M34.2535 130.99H38.8574C40.6112 130.99 41.7439 129.748 41.415 128.232L40.666 124.925H32.4449L31.696 128.232C31.3671 129.657 32.6093 130.99 34.2535 130.99Z" stroke="#A8D0E6" stroke-width="3" stroke-linecap="round" stroke-linejoin="round"/>
<path d="M40.6682 124.907L43.829 122.093C45.6011 120.522 45.674 119.426 44.2672 117.654L38.6951 110.584C37.5259 109.104 35.6078 109.104 34.4386 110.584L28.8664 117.654C27.4597 119.426 27.4596 120.577 29.3048 122.093L32.4655 124.907" stroke="#A8D0E6" stroke-width="3" stroke-linecap="round" stroke-linejoin="round"/>
<path d="M36.5564 110.2V114.822" stroke="#A8D0E6" stroke-width="3" stroke-linecap="round" stroke-linejoin="round"/>
<path d="M37.4875 99.0193H35.6606C34.6558 99.0193 33.8337 98.1972 33.8337 97.1924V95.3655C33.8337 94.3607 34.6558 93.5386 35.6606 93.5386H37.4875C38.4923 93.5386 39.3144 94.3607 39.3144 95.3655V97.1924C39.3144 98.1972 38.4923 99.0193 37.4875 99.0193Z" stroke="#374785" stroke-width="3" stroke-linecap="round" stroke-linejoin="round"/>
<path d="M20.5886 115.772H22.4155C23.4203 115.772 24.2424 114.95 24.2424 113.945V112.118C24.2424 111.113 23.4203 110.291 22.4155 110.291H20.5886C19.5837 110.291 18.7616 111.113 18.7616 112.118V113.945C18.7616 114.95 19.5837 115.772 20.5886 115.772Z" stroke="#374785" stroke-width="3" stroke-linecap="round" stroke-linejoin="round"/>
<path d="M52.4885 115.772H50.6615C49.6567 115.772 48.8346 114.95 48.8346 113.945V112.118C48.8346 111.113 49.6567 110.291 50.6615 110.291H52.4885C53.4933 110.291 54.3154 111.113 54.3154 112.118V113.945C54.3154 114.95 53.4933 115.772 52.4885 115.772Z" stroke="#374785" stroke-width="3" stroke-linecap="round" stroke-linejoin="round"/>
<path d="M33.8346 96.3884C26.8741 97.2105 21.4664 103.112 21.4664 110.291" stroke="#374785" stroke-width="3" stroke-linecap="round" stroke-linejoin="round"/>
<path d="M51.6096 110.291C51.6096 103.13 46.2385 97.2471 39.3145 96.3884" stroke="#374785" stroke-width="3" stroke-linecap="round" stroke-linejoin="round"/>
<path d="M43.8462 183.058V179.404C43.8462 175.959 43.8462 174.237 42.776 173.167C41.7058 172.096 39.9833 172.096 36.5385 172.096H34.7116C31.2667 172.096 29.5442 172.096 28.4741 173.167C27.4039 174.237 27.4039 175.959 27.4039 179.404V183.058" stroke="#24305E" stroke-width="3"/>
<path d="M27.4039 159.308H36.5385" stroke="#374785" stroke-width="3" stroke-linecap="round"/>
<path d="M20.0962 161.135C20.0962 155.967 20.0962 153.383 21.7014 151.779C23.3067 150.173 25.8904 150.173 31.0577 150.173H44.1597C44.9064 150.173 45.2798 150.173 45.6156 150.312C45.9511 150.452 46.2153 150.715 46.7433 151.243L51.9106 156.411C52.4385 156.939 52.7027 157.202 52.8418 157.539C52.9808 157.874 52.9808 158.247 52.9808 158.994V172.096C52.9808 177.263 52.9808 179.847 51.3754 181.452C49.7701 183.058 47.1865 183.058 42.0192 183.058H31.0577C25.8904 183.058 23.3067 183.058 21.7014 181.452C20.0962 179.847 20.0962 177.263 20.0962 172.096V161.135Z" stroke="#374785" stroke-width="3"/>
<mask id="mask3_205_136" style="mask-type:luminance" maskUnits="userSpaceOnUse" x="145" y="71" width="71" height="77">
<path d="M215.577 71.6155H145.423V147.615H215.577V71.6155Z" fill="white"/>
</mask>

<!-- flower_group -->
<g id="img_svgEditor_flower_group" mask="url(#mask3_205_136)">
<path id="flower_group_petal_1" class="flower_group_petal" d="M171.566 92.7253L177.513 103.797C179.524 102.523 182.492 103.18 183.726 103.667C184.934 101.21 187.862 95.2684 189.896 91.1527C191.931 87.037 191.18 83.3831 190.551 82.0707C189.72 79.6738 186.609 75.0253 180.814 75.607C174.061 76.2852 171.873 80.3358 171.365 81.2756C168.958 85.7282 170.447 90.6419 171.566 92.7253Z" stroke="#F8E9A1" stroke-width="6"/>
<path id="flower_group_petal_2" class="flower_group_petal" d="M169.723 93.8003L176.782 104.208C174.707 105.376 173.899 108.287 173.754 109.597C171.003 109.507 164.346 109.29 159.732 109.145C155.118 109.001 152.22 106.63 151.347 105.463C149.605 103.61 146.928 98.7023 150.163 93.8909C153.931 88.2837 158.559 88.2618 159.634 88.2574C164.722 88.2333 168.395 91.8426 169.723 93.8003Z" fill="#374785" fill-opacity="0.85" stroke="#F8E9A1" stroke-width="6"/>
<path id="flower_group_petal_3" class="flower_group_petal" d="M191.288 93.8003L184.229 104.208C186.304 105.376 187.112 108.287 187.257 109.597C190.008 109.507 196.665 109.29 201.279 109.145C205.893 109.001 208.791 106.63 209.664 105.463C211.406 103.61 214.082 98.7023 210.848 93.8909C207.08 88.2837 202.451 88.2618 201.377 88.2574C196.289 88.2333 192.616 91.8426 191.288 93.8003Z" fill="#F76C6C" fill-opacity="0.85" stroke="#F8E9A1" stroke-width="6"/>
<path id="flower_group_petal_4" class="flower_group_petal" d="M161.247 110.479L173.873 109.998C173.78 112.365 175.847 114.58 176.892 115.392C175.366 117.667 171.675 123.174 169.123 126.994C166.571 130.815 163.015 132.014 161.556 132.135C159.053 132.631 153.443 132.307 151.027 127.044C148.211 120.909 150.629 116.99 151.19 116.08C153.849 111.771 158.872 110.57 161.247 110.479Z" fill="#F76C6C" fill-opacity="0.85" stroke="#F8E9A1" stroke-width="6"/>
<path id="flower_group_petal_5" class="flower_group_petal" d="M199.681 110.008L187.053 109.587C187.157 111.953 185.101 114.179 184.06 114.995C185.597 117.264 189.314 122.753 191.885 126.561C194.456 130.369 198.017 131.55 199.476 131.665C201.982 132.15 207.59 131.799 209.981 126.523C212.767 120.376 210.33 116.468 209.764 115.561C207.085 111.265 202.056 110.088 199.681 110.008Z" fill="#F76C6C" fill-opacity="0.85" stroke="#F8E9A1" stroke-width="6"/>
<path id="flower_group_petal_6" class="flower_group_petal" d="M171.917 126.732L177.394 115.425C179.457 116.613 182.396 115.834 183.607 115.297C184.918 117.701 188.093 123.516 190.298 127.544C192.504 131.572 191.908 135.253 191.334 136.591C190.604 139.02 187.692 143.794 181.878 143.452C175.101 143.055 172.744 139.099 172.198 138.181C169.606 133.831 170.887 128.86 171.917 126.732Z" fill="#F76C6C" fill-opacity="0.85" stroke="#F8E9A1" stroke-width="6"/>
</g>

    <!-- select_region -->
    <g transform="translate(0,0)">
        <g id="img_svgEditor_select_region" opacity="0.5">
            <!-- 計算 trans_center 的位置 (大約是 x=241.5, y=160.3) -->
            <g transform="translate(241.5, 160.3)">
                <g transform="scale(1)" class="scale-animation">
                    <g transform="translate(-241.5, -160.3)">
                        <path d="M238.693 59.1609H122.307C122.307 60.3041 121.381 61.2309 120.238 61.2309H119.818V158H120.238C121.381 158 122.307 158.927 122.307 160.07H238.693C238.693 158.927 239.619 158 240.762 158H241.182V61.4896V61.2309H240.762C239.619 61.2309 238.693 60.3041 238.693 59.1609Z" stroke="#374785" stroke-width="3"/>
                        <path d="M120.115 56.5735H118.898C117.688 56.5735 116.706 57.555 116.706 58.7658V59.0385C116.706 60.2493 117.688 61.2308 118.898 61.2308H120.115C121.326 61.2308 122.307 60.2493 122.307 59.0385V58.7658C122.307 57.555 121.326 56.5735 120.115 56.5735Z" stroke="#374785" stroke-width="3"/>
                        <path d="M242.102 56.5735H240.885C239.674 56.5735 238.693 57.555 238.693 58.7658V59.0385C238.693 60.2493 239.674 61.2308 240.885 61.2308H242.102C243.313 61.2308 244.294 60.2493 244.294 59.0385V58.7658C244.294 57.555 243.313 56.5735 242.102 56.5735Z" stroke="#374785" stroke-width="3"/>
                        <path id="trans_center" d="M242.102 158H240.885C239.674 158 238.693 158.982 238.693 160.192V160.465C238.693 161.676 239.674 162.658 240.885 162.658H242.102C243.313 162.658 244.294 161.676 244.294 160.465V160.192C244.294 158.982 243.313 158 242.102 158Z" stroke="#374785" stroke-width="3"/> 
                        <path d="M120.115 158H118.898C117.688 158 116.706 158.982 116.706 160.192V160.465C116.706 161.676 117.688 162.658 118.898 162.658H120.115C121.326 162.658 122.307 161.676 122.307 160.465V160.192C122.307 158.982 121.326 158 120.115 158Z" stroke="#374785" stroke-width="3"/>
                    </g>
                </g>
            </g>
        </g>
    </g>

<defs>
<linearGradient id="paint0_linear_205_136" x1="-2.30734e-05" y1="104.5" x2="304" y2="104.5" gradientUnits="userSpaceOnUse">
<stop stop-color="#A8D0E6"/>
<stop offset="1" stop-color="#FCB3AD"/>
</linearGradient>
</defs>
</svg>