<svg width="279" height="237" viewBox="0 0 279 237" fill="none" xmlns="http://www.w3.org/2000/svg">
<g>

<!-- 大三角 -->
<linearGradient id="paint0_linear_173_120" x1="99.2949" y1="-6.9102" x2="42.0692" y2="255.491" gradientUnits="userSpaceOnUse">
<stop stop-color="#F8E9A1"/>
<stop offset="1" stop-color="#F76C6C"/>
</linearGradient>
<path d="M-2.46899 4C-2.46899 1.23858 -0.230422 -1 2.53101 -1H222.486C226.94 -1 229.171 4.38599 226.021 7.53573L6.06632 227.466C2.91642 230.615 -2.46899 228.384 -2.46899 223.93V4Z" fill="url(#paint0_linear_173_120)"/>

<!-- 右-小三角 -->
<linearGradient id="paint1_linear_173_120" x1="24.3075" y1="86.6406" x2="175.519" y2="-62.7357" gradientUnits="userSpaceOnUse">
<stop stop-color="#A8D0E6"/>
<stop offset="1" stop-color="#374785"/>
</linearGradient>
<path d="M-1 4C-1 1.23857 1.23858 -1 4 -1H144.673L-1 144.656V4Z" fill="url(#paint1_linear_173_120)"/>

<!-- 下-小三角 -->
<linearGradient id="paint2_linear_173_120" x1="249.927" y1="180.453" x2="54.2591" y2="132.92" gradientUnits="userSpaceOnUse">
<stop offset="0.350439" stop-color="#374785"/>
<stop offset="1" stop-color="#A8D0E6"/>
</linearGradient>
<path d="M112.425 120.454C114.403 118.543 117.552 118.588 119.475 120.555L224.711 228.222C227.806 231.388 225.562 236.717 221.135 236.717H4.45616C-0.0400195 236.717 -2.25152 231.245 0.982064 228.121L112.425 120.454Z" fill="url(#paint2_linear_173_120)"/>
</g>

<g> 
<!-- 臉 -->
<path d="M217.582 123.543C245.934 152.057 247.346 196.614 220.737 223.066C198.278 200.478 197.754 199.952 169.402 171.437C141.051 142.923 141.328 143.203 118.067 119.809C136.21 101.774 162.694 96.8124 186.698 104.519C187.898 104.904 189.092 105.321 190.28 105.77C200.166 109.508 209.527 115.442 217.582 123.543Z" 
fill="#E2F1D4">
</path>
<!-- 左眼 -->
<g transform="translate(173,131) rotate(45)">
  <circle
    id="rightEye"
    cx="0"
    cy="0"
    r="10"
    fill="white"
  >
    <animateTransform
        attributeName="transform"
        attributeType="XML"
        type="scale"
        values="1 1; 1 0.05; 1 1; 1 1"
        keyTimes="0; 0.15; 0.55; 1"
        dur="4s"
        repeatCount="indefinite"
    />
  </circle>
</g>
<!-- 右眼  -->
<g transform="translate(210,168) rotate(45)">
  <circle
    id="rightEye"
    cx="0"
    cy="0"
    r="10"
    fill="white"
  >
    <animateTransform
        attributeName="transform"
        attributeType="XML"
        type="scale"
        values="1 1; 1 0.05; 1 1; 1 1"
        keyTimes="0; 0.15; 0.45; 1"
        dur="4s"
        repeatCount="indefinite"
    />
  </circle>
</g>


<!-- 左耳 -->
<path d="M199.385 91.4917C199.687 89.4122 198.226 87.3638 196.122 86.9161C194.018 86.4685 192.066 87.7913 191.762 89.8707L188.788 110.309C188.485 112.389 189.946 114.437 192.051 114.885C194.155 115.333 196.107 114.01 196.409 111.93L199.385 91.4917Z" 
fill="#E2F1D4">
    <animateTransform
        attributeName="transform"
        attributeType="XML"
        type="rotate"
        values="0 140 119; 2 140 119; -3 140 119; 0 140 119"
        dur="2s"
        repeatCount="indefinite"
    />
</path>
<!-- 右耳 -->
<path d="M252.428 150.883C254.509 150.592 255.844 148.65 255.409 146.542C254.973 144.435 252.933 142.962 250.851 143.253L230.393 146.109C228.312 146.4 226.978 148.343 227.414 150.45C227.849 152.557 229.889 154.03 231.97 153.74L252.428 150.883Z" 
fill="#E2F1D4">
  <animateTransform
        attributeName="transform"
        attributeType="XML"
        type="rotate"
        values="0 140 119; 3 140 119; -2 140 119; 0 140 119"
        dur="2s"
        repeatCount="indefinite"
    />
</path>
</g>
</svg>
