<svg width="230" height="206" viewBox="0 0 230 206" fill="none" xmlns="http://www.w3.org/2000/svg">
  <mask id="mask0_172_21" style="mask-type:luminance" maskUnits="userSpaceOnUse" x="0" y="0" width="230" height="206">
    <path d="M230 0.666748H0V205.667H230V0.666748Z" fill="white"/>
  </mask>
  <g mask="url(#mask0_172_21)">
    <!-- 路徑1 -->
    <path id="react_icon_line_1" d="M59.3553 4.98751C64.0722 2.26484 70.1596 2.25351 77.2347 4.73234C84.307 7.21034 92.2762 12.1497 100.646 19.1756C117.381 33.2236 135.602 55.5112 151.313 82.7165C167.023 109.922 177.219 136.841 181.019 158.355C182.921 169.114 183.215 178.485 181.825 185.847C180.435 193.212 177.381 198.477 172.665 201.2C167.947 203.923 161.86 203.934 154.785 201.455C147.713 198.977 139.743 194.038 131.373 187.012C114.638 172.965 96.4181 150.677 80.7075 123.471C64.9969 96.2656 54.8009 69.3463 50.9999 47.8324C49.0989 37.0724 48.8049 27.7028 50.1946 20.3405C51.5848 12.9753 54.6384 7.71017 59.3553 4.98751Z" stroke="#A8D0E6" stroke-width="3" fill="none"/>
    
    <!-- 路徑2 -->
    <path id="react_icon_line_2" d="M172.665 4.98751C177.381 7.71017 180.435 12.9753 181.825 20.3405C183.215 27.7028 182.921 37.0724 181.019 47.8324C177.219 69.3463 167.023 96.2656 151.313 123.471C135.602 150.677 117.381 172.965 100.646 187.012C92.2762 194.038 84.307 198.977 77.2347 201.455C70.1596 203.934 64.0722 203.923 59.3553 201.2C54.6384 198.477 51.5848 193.212 50.1946 185.847C48.8049 178.485 49.0989 169.114 50.9999 158.355C54.8009 136.841 64.9969 109.922 80.7075 82.7165C96.4181 55.5112 114.638 33.2236 131.373 19.1756C139.743 12.1497 147.713 7.21034 154.785 4.73234C161.86 2.25351 167.947 2.26484 172.665 4.98751Z" stroke="#A8D0E6" stroke-width="3" fill="none"/>
    
    <!-- 路徑3 -->
    <path id="react_icon_line_3" 
    d="M1.69092 102.476C1.69092 97.0307 4.72477 91.7544 10.4096 86.868C16.0922 81.9837 24.3555 77.5533 34.6266 73.8193C55.1627 66.3534 83.5788 61.7217 115 61.7217C146.421 61.7217 174.837 66.3534 195.373 73.8193C205.645 77.5533 213.908 81.9837 219.59 86.868C225.275 91.7544 228.309 97.0307 228.309 102.476C228.309 107.922 225.275 113.198 219.59 118.084C213.908 122.968 205.645 127.399 195.373 131.133C174.837 138.598 146.421 143.231 115 143.231C83.5788 143.231 55.1627 138.598 34.6266 131.133C24.3555 127.399 16.0922 122.968 10.4096 118.084C4.72477 113.198 1.69092 107.922 1.69092 102.476Z" 
    stroke="#A8D0E6" 
    stroke-width="3" 
    fill="none"/>

    <path d="M115.691 117.673C124.086 117.673 130.891 110.869 130.891 102.476C130.891 94.0831 124.086 87.2794 115.691 87.2794C107.296 87.2794 100.491 94.0831 100.491 102.476C100.491 110.869 107.296 117.673 115.691 117.673Z" fill="#A8D0E6"/>
    
    <!-- 球1 - 沿路徑1移動，5秒，頭尾漸快漸慢 -->
    <g transform="translate(-5 -5)">
      <path id="react_icon_ball_1" d="M5 5C7.76142 5 10 7.23858 10 10C10 12.7614 7.76142 15 5 15C2.23858 15 0 12.7614 0 10C0 7.23858 2.23858 5 5 5Z" fill="#F8E9A1">
        <animateMotion 
          dur="5s" 
          repeatCount="indefinite"
          calcMode="spline"
          keyTimes="0;0.5;1"
          keySplines="0.5 0 0.5 1; 0.5 0 0.5 1"
          path="M59.3553 4.98751C64.0722 2.26484 70.1596 2.25351 77.2347 4.73234C84.307 7.21034 92.2762 12.1497 100.646 19.1756C117.381 33.2236 135.602 55.5112 151.313 82.7165C167.023 109.922 177.219 136.841 181.019 158.355C182.921 169.114 183.215 178.485 181.825 185.847C180.435 193.212 177.381 198.477 172.665 201.2C167.947 203.923 161.86 203.934 154.785 201.455C147.713 198.977 139.743 194.038 131.373 187.012C114.638 172.965 96.4181 150.677 80.7075 123.471C64.9969 96.2656 54.8009 69.3463 50.9999 47.8324C49.0989 37.0724 48.8049 27.7028 50.1946 20.3405C51.5848 12.9753 54.6384 7.71017 59.3553 4.98751Z"
        />
      </path>
    </g>
    
    <!-- 球2 - 沿路徑2移動，8秒，頭尾漸快漸慢 -->
    <g transform="translate(-5 -5)">
      <path id="react_icon_ball_2" d="M5 5C7.76142 5 10 7.23858 10 10C10 12.7614 7.76142 15 5 15C2.23858 15 0 12.7614 0 10C0 7.23858 2.23858 5 5 5Z" fill="#F76C6C">
        <animateMotion 
          dur="4s" 
          repeatCount="indefinite"
          calcMode="spline"
          keyTimes="0;0.5;1"
          keySplines="0.5 0 0.5 1; 0.5 0 0.5 1"
          path="M172.665 4.98751C177.381 7.71017 180.435 12.9753 181.825 20.3405C183.215 27.7028 182.921 37.0724 181.019 47.8324C177.219 69.3463 167.023 96.2656 151.313 123.471C135.602 150.677 117.381 172.965 100.646 187.012C92.2762 194.038 84.307 198.977 77.2347 201.455C70.1596 203.934 64.0722 203.923 59.3553 201.2C54.6384 198.477 51.5848 193.212 50.1946 185.847C48.8049 178.485 49.0989 169.114 50.9999 158.355C54.8009 136.841 64.9969 109.922 80.7075 82.7165C96.4181 55.5112 114.638 33.2236 131.373 19.1756C139.743 12.1497 147.713 7.21034 154.785 4.73234C161.86 2.25351 167.947 2.26484 172.665 4.98751Z"
        />
      </path>
    </g>
    
    <!-- 球3 - 沿路徑3移動，6秒，均速 -->
    <g transform="translate(-5 -5)">
      <path id="react_icon_ball_3" d="M5 5C7.76142 5 10 7.23858 10 10C10 12.7614 7.76142 15 5 15C2.23858 15 0 12.7614 0 10C0 7.23858 2.23858 5 5 5Z" fill="#F8E9A1">
        <animateMotion 
          dur="6s" 
          repeatCount="indefinite"
          calcMode="linear"
          path="M1.69092 102.476C1.69092 97.0307 4.72477 91.7544 10.4096 86.868C16.0922 81.9837 24.3555 77.5533 34.6266 73.8193C55.1627 66.3534 83.5788 61.7217 115 61.7217C146.421 61.7217 174.837 66.3534 195.373 73.8193C205.645 77.5533 213.908 81.9837 219.59 86.868C225.275 91.7544 228.309 97.0307 228.309 102.476C228.309 107.922 225.275 113.198 219.59 118.084C213.908 122.968 205.645 127.399 195.373 131.133C174.837 138.598 146.421 143.231 115 143.231C83.5788 143.231 55.1627 138.598 34.6266 131.133C24.3555 127.399 16.0922 122.968 10.4096 118.084C4.72477 113.198 1.69092 107.922 1.69092 102.476Z"
        />
      </path>
    </g>
  </g>
</svg>