<svg width="483" height="170" viewBox="0 0 483 170" fill="none" xmlns="http://www.w3.org/2000/svg">
<g clip-path="url(#clip0_171_90)">
<path d="M478.071 0.868164H4.92857C2.4788 0.868164 0.492859 3.02315 0.492859 5.68146V163.985C0.492859 166.644 2.4788 168.799 4.92857 168.799H478.071C480.521 168.799 482.507 166.644 482.507 163.985V5.68146C482.507 3.02315 480.521 0.868164 478.071 0.868164Z" fill="url(#paint0_linear_171_90)"/>
<path d="M478.071 0.868164H4.92857C2.4788 0.868164 0.492859 3.02315 0.492859 5.68146V163.985C0.492859 166.644 2.4788 168.799 4.92857 168.799H478.071C480.521 168.799 482.507 166.644 482.507 163.985V5.68146C482.507 3.02315 480.521 0.868164 478.071 0.868164Z" stroke="#7E7E7E"/>
<path d="M474.129 165.055H8.87144C6.14947 165.055 3.94287 162.66 3.94287 159.707V11.0296C3.94287 8.07595 6.14947 5.68152 8.87144 5.68152H72.45H79.35H160.179H167.571H175.457H209.957H474.129C476.85 5.68152 479.057 8.07595 479.057 11.0296V159.707C479.057 162.66 476.85 165.055 474.129 165.055Z" fill="#D9D9D9" stroke="#7E7E7E"/>
<path d="M471.172 40.4441H9.85717C8.49618 40.4441 7.39288 41.6413 7.39288 43.1181V157.568C7.39288 159.044 8.49618 160.242 9.85717 160.242H471.172C472.532 160.242 473.636 159.044 473.636 157.568V43.1181C473.636 41.6413 472.532 40.4441 471.172 40.4441Z" fill="#A8D0E6" stroke="#7E7E7E"/>
<path d="M460.64 19.0066C460.545 18.8954 460.5 18.7542 460.5 18.5829C460.5 18.4118 460.545 18.2705 460.64 18.1592C460.735 18.048 460.855 17.9938 461.001 17.9938H471.54C471.686 17.9938 471.806 18.048 471.901 18.1592C471.995 18.2705 472.042 18.4118 472.042 18.5829C472.042 18.7542 471.995 18.8954 471.901 19.0066C471.806 19.1178 471.686 19.1722 471.54 19.1722H461.001C460.855 19.1722 460.735 19.1178 460.64 19.0066ZM471.901 22.8796C471.995 22.9908 472.042 23.1321 472.042 23.3033C472.042 23.4745 471.995 23.6157 471.901 23.7269C471.806 23.8382 471.686 23.8925 471.54 23.8925H461.001C460.855 23.8925 460.735 23.8382 460.64 23.7269C460.545 23.6157 460.5 23.4745 460.5 23.3033C460.5 23.1321 460.545 22.9908 460.64 22.8796C460.735 22.7683 460.855 22.7141 461.001 22.7141H471.54C471.686 22.7141 471.806 22.7683 471.901 22.8796ZM471.901 27.5969C471.995 27.7082 472.042 27.8494 472.042 28.0206C472.042 28.1917 471.995 28.333 471.901 28.4443C471.806 28.5555 471.686 28.6099 471.54 28.6099H461.001C460.855 28.6099 460.735 28.5555 460.64 28.4443C460.545 28.333 460.5 28.1917 460.5 28.0206C460.5 27.8494 460.545 27.7082 460.64 27.5969C460.735 27.4857 460.855 27.4314 461.001 27.4314H471.54C471.686 27.4314 471.806 27.4883 471.901 27.5969Z" fill="#7E7E7E"/>
<mask id="mask0_171_90" style="mask-type:luminance" maskUnits="userSpaceOnUse" x="431" y="17" width="14" height="15">
<path d="M444.557 17.4473H431.743V31.3523H444.557V17.4473Z" fill="white"/>
</mask>
<g mask="url(#mask0_171_90)">
<path fill-rule="evenodd" clip-rule="evenodd" d="M433.323 24.3998C433.323 21.7714 435.212 19.1623 438.15 19.1623C440.524 19.1623 441.697 21.0685 442.196 22.0823H440.713C440.477 22.0823 440.286 22.2898 440.286 22.5458C440.286 22.8018 440.477 23.0093 440.713 23.0093H443.276C443.511 23.0093 443.703 22.8018 443.703 22.5458V19.7648C443.703 19.5088 443.511 19.3013 443.276 19.3013C443.04 19.3013 442.849 19.5088 442.849 19.7648V21.4456C442.247 20.2944 440.855 18.2352 438.15 18.2352C434.679 18.2352 432.469 21.3272 432.469 24.3998C432.469 27.4725 434.679 30.5644 438.15 30.5644C439.811 30.5644 441.193 29.8513 442.178 28.7646C442.705 28.1826 443.116 27.495 443.397 26.7551C443.487 26.5184 443.382 26.2474 443.164 26.1501C442.947 26.0527 442.697 26.1656 442.607 26.4023C442.367 27.0348 442.016 27.6207 441.568 28.1147C440.739 29.0314 439.572 29.6374 438.15 29.6374C435.212 29.6374 433.323 27.0283 433.323 24.3998Z" fill="#7E7E7E"/>
</g>
<path d="M90.9993 30.2826C90.9373 30.2827 90.8767 30.2677 90.8251 30.2399C90.7735 30.212 90.7333 30.1723 90.7096 30.1259C90.6858 30.0795 90.6796 30.0284 90.6917 29.979C90.7038 29.9298 90.7337 29.8845 90.7776 29.849L97.791 24.1665C97.8893 24.0863 97.9445 23.9778 97.9445 23.8648C97.9445 23.7517 97.8893 23.6433 97.791 23.563L90.7776 17.8809C90.7188 17.8332 90.6858 17.7686 90.6858 17.7012C90.6858 17.6338 90.7189 17.5692 90.7777 17.5216C90.8365 17.474 90.9163 17.4473 90.9994 17.4473C91.0825 17.4473 91.1623 17.4741 91.2211 17.5217L98.2343 23.2039C98.4502 23.3794 98.5714 23.6171 98.5714 23.8649C98.5714 24.1126 98.4502 24.3503 98.2343 24.5258L91.2208 30.2083C91.1621 30.2559 91.0824 30.2826 90.9993 30.2826Z" fill="#7E7E7E"/>
<path d="M80.2669 17.4474C80.3289 17.4474 80.3895 17.4623 80.4412 17.4902C80.4927 17.5181 80.5329 17.5578 80.5567 17.6042C80.5804 17.6506 80.5866 17.7016 80.5745 17.7509C80.5624 17.8003 80.5325 17.8455 80.4887 17.881L73.4752 23.5636C73.3769 23.6438 73.3217 23.7523 73.3217 23.8653C73.3217 23.9784 73.3769 24.0868 73.4752 24.1671L80.4887 29.8492C80.5474 29.8969 80.5804 29.9615 80.5804 30.0289C80.5804 30.0963 80.5473 30.1609 80.4886 30.2085C80.4297 30.2561 80.35 30.2828 80.2668 30.2828C80.1837 30.2828 80.1039 30.256 80.0451 30.2084L73.0319 24.5261C72.8161 24.3507 72.6948 24.113 72.6948 23.8652C72.6948 23.6175 72.8161 23.3798 73.0319 23.2043L80.0454 17.5217C80.1041 17.4741 80.1838 17.4474 80.2669 17.4474Z" fill="#7E7E7E"/>
<path d="M117.793 13.7036H417.45C422.35 13.7036 426.321 18.0135 426.321 23.3302C426.321 28.6468 422.35 32.9568 417.45 32.9568H117.793C112.893 32.9568 108.921 28.6468 108.921 23.3302C108.921 18.0135 112.893 13.7036 117.793 13.7036Z" fill="#FEE9E7" stroke="#7E7E7E"/>
<mask id="mask1_171_90" style="mask-type:luminance" maskUnits="userSpaceOnUse" x="119" y="17" width="13" height="14">
<path d="M131.1 17.4473H119.271V30.2827H131.1V17.4473Z" fill="white"/>
</mask>
<g mask="url(#mask1_171_90)">
<path d="M130.637 27.4401L127.72 24.3265C127.995 23.7005 128.149 23 128.149 22.2605C128.149 19.6023 126.162 17.4473 123.713 17.4473C121.263 17.4473 119.277 19.6023 119.277 22.2605C119.277 24.9187 121.263 27.0737 123.713 27.0737C124.388 27.0737 125.028 26.9097 125.602 26.6165L128.475 29.7862C129.069 30.4439 130.046 30.4488 130.646 29.7968C131.248 29.145 131.243 28.0859 130.637 27.4401ZM120.263 22.2605C120.263 20.1931 121.808 18.5169 123.713 18.5169C125.618 18.5169 127.163 20.1931 127.163 22.2605C127.163 22.9298 127 23.5579 126.717 24.1016C126.706 24.1181 126.695 24.1354 126.685 24.1537C126.383 24.7085 125.956 25.1704 125.445 25.4937C125.429 25.5038 125.414 25.5148 125.399 25.5262C124.901 25.8304 124.325 26.0041 123.713 26.0041C121.808 26.0041 120.263 24.3279 120.263 22.2605ZM129.95 29.0405C129.737 29.272 129.39 29.2703 129.179 29.0367L126.46 26.039C126.728 25.809 126.972 25.546 127.185 25.2557L129.946 28.2029C130.161 28.4327 130.162 28.8091 129.95 29.0405Z" fill="#7E7E7E"/>
</g>
<path d="M12.8143 17.9821C9.82012 17.9821 7.39286 20.616 7.39286 23.865C7.39286 27.1141 9.82012 29.7479 12.8143 29.7479C15.8085 29.7479 18.2357 27.1141 18.2357 23.865C18.2357 20.616 15.8085 17.9821 12.8143 17.9821Z" fill="#F76C6C" stroke="#7E7E7E"/>
<path d="M33.5143 17.9821C30.5201 17.9821 28.0929 20.616 28.0929 23.865C28.0929 27.1141 30.5201 29.7479 33.5143 29.7479C36.5085 29.7479 38.9357 27.1141 38.9357 23.865C38.9357 20.616 36.5085 17.9821 33.5143 17.9821Z" fill="#F8E9A1" stroke="#7E7E7E"/>
<path d="M54.2143 17.9821C51.2201 17.9821 48.7929 20.616 48.7929 23.865C48.7929 27.1141 51.2201 29.7479 54.2143 29.7479C57.2085 29.7479 59.6357 27.1141 59.6357 23.865C59.6357 20.616 57.2085 17.9821 54.2143 17.9821Z" fill="#A8D0E6" stroke="#7E7E7E"/>


<path d="M319.555 73.8116H240.976C238.083 73.8116 235.738 76.1615 235.738 79.0601V102.153C235.738 105.052 238.083 107.402 240.976 107.402H319.555C322.449 107.402 324.794 105.052 324.794 102.153V79.0601C324.794 76.1615 322.449 73.8116 319.555 73.8116Z" 
fill="#F8E9A1">
    <animateTransform
      attributeType="xml" 
      attributeName="transform"
      type="translate"
      dur="5s"
      values="0,0; 25,0 ;29,0 ; 50,0 ; 25,0 ; 20,0 ; 0,0"
      keyTimes="0 ; 0.08 ; 0.1 ; 0.3 ; 0.5 ; 0.6 ; 1"
      repeatCount="indefinite"
      />
</path>
<path d="M240.576 90.3876V88.889C241.434 88.889 242.029 88.7176 242.362 88.3747C242.694 88.0317 242.86 87.4775 242.86 86.7122V85.0646C242.86 84.1451 242.987 83.4095 243.24 82.8578C243.498 82.3012 243.855 81.8812 244.311 81.5979C244.773 81.3146 245.318 81.1257 245.948 81.0313C246.578 80.9369 247.268 80.8896 248.017 80.8896V83.2604C247.432 83.2604 246.985 83.3374 246.678 83.4915C246.375 83.6406 246.169 83.8742 246.06 84.1923C245.951 84.5054 245.896 84.903 245.896 85.3852V87.562C245.896 87.9398 245.827 88.3001 245.688 88.6431C245.549 88.981 245.291 89.2817 244.914 89.5451C244.537 89.8035 243.999 90.0098 243.299 90.1639C242.6 90.313 241.692 90.3876 240.576 90.3876ZM248.017 99.7588C247.268 99.7588 246.578 99.7115 245.948 99.6171C245.318 99.5226 244.773 99.3337 244.311 99.0504C243.855 98.7671 243.498 98.3497 243.24 97.798C242.987 97.2413 242.86 96.5033 242.86 95.5838V93.9288C242.86 93.1634 242.694 92.6092 242.362 92.2663C242.029 91.9234 241.434 91.7518 240.576 91.7518V90.2534C241.692 90.2534 242.6 90.3303 243.299 90.4844C243.999 90.6336 244.537 90.8399 244.914 91.1032C245.291 91.3617 245.549 91.6624 245.688 92.0053C245.827 92.3433 245.896 92.7036 245.896 93.0863V95.2633C245.896 95.7403 245.951 96.138 246.06 96.456C246.169 96.7691 246.375 97.0028 246.678 97.1569C246.985 97.306 247.432 97.3805 248.017 97.3805V99.7588ZM240.576 91.7518V88.889H243.247V91.7518H240.576ZM272.973 88.0317H269.714C269.654 87.6092 269.533 87.234 269.349 86.9059C269.166 86.573 268.93 86.2897 268.642 86.0561C268.354 85.8225 268.022 85.6436 267.645 85.5193C267.273 85.395 266.869 85.333 266.432 85.333C265.643 85.333 264.956 85.5293 264.371 85.9219C263.786 86.3095 263.332 86.8761 263.009 87.6216C262.687 88.3622 262.525 89.2618 262.525 90.3205C262.525 91.4089 262.687 92.3234 263.009 93.0639C263.337 93.8045 263.793 94.3637 264.378 94.7414C264.964 95.1191 265.641 95.308 266.41 95.308C266.841 95.308 267.241 95.2508 267.608 95.1365C267.98 95.0221 268.31 94.8557 268.598 94.637C268.885 94.4133 269.123 94.1425 269.312 93.8243C269.505 93.5063 269.639 93.1435 269.714 92.7359L272.973 92.7508C272.889 93.4516 272.678 94.1276 272.34 94.7786C272.008 95.4248 271.559 96.0038 270.994 96.5157C270.433 97.0226 269.763 97.4252 268.984 97.7234C268.211 98.0167 267.335 98.1633 266.358 98.1633C264.998 98.1633 263.783 97.8551 262.712 97.2389C261.645 96.6226 260.802 95.7305 260.182 94.5625C259.566 93.3945 259.259 91.9805 259.259 90.3205C259.259 88.6555 259.571 87.239 260.196 86.071C260.821 84.903 261.67 84.0134 262.741 83.402C263.813 82.7857 265.018 82.4776 266.358 82.4776C267.241 82.4776 268.059 82.6018 268.813 82.8504C269.572 83.0989 270.245 83.4617 270.83 83.9388C271.415 84.4109 271.891 84.9899 272.259 85.6759C272.631 86.3618 272.869 87.1471 272.973 88.0317ZM283.551 87.0775C283.491 86.4761 283.236 86.0089 282.784 85.6759C282.333 85.3429 281.72 85.1764 280.946 85.1764C280.42 85.1764 279.976 85.2509 279.614 85.4001C279.252 85.5442 278.974 85.7454 278.781 86.0039C278.592 86.2624 278.498 86.5556 278.498 86.8836C278.488 87.1569 278.545 87.3955 278.669 87.5993C278.798 87.8031 278.974 87.9796 279.198 88.1286C279.421 88.2727 279.679 88.3995 279.971 88.5088C280.264 88.6133 280.577 88.7027 280.909 88.7772L282.278 89.1053C282.943 89.2543 283.553 89.4531 284.109 89.7017C284.664 89.9501 285.146 90.2558 285.552 90.6187C285.959 90.9815 286.274 91.4089 286.497 91.901C286.726 92.393 286.842 92.9571 286.847 93.5933C286.842 94.5276 286.604 95.3378 286.133 96.0237C285.666 96.7046 284.992 97.2338 284.109 97.6116C283.231 97.9844 282.172 98.1708 280.931 98.1708C279.701 98.1708 278.63 97.9818 277.717 97.6042C276.809 97.2264 276.1 96.6673 275.589 95.9268C275.083 95.1813 274.817 94.2592 274.792 93.1608H277.91C277.945 93.6728 278.091 94.1002 278.349 94.4431C278.612 94.7811 278.962 95.037 279.398 95.2111C279.84 95.38 280.339 95.4645 280.894 95.4645C281.44 95.4645 281.914 95.385 282.315 95.226C282.722 95.067 283.037 94.8458 283.26 94.5625C283.484 94.2792 283.595 93.9536 283.595 93.5859C283.595 93.2429 283.494 92.9546 283.29 92.721C283.092 92.4875 282.799 92.2886 282.412 92.1246C282.03 91.9606 281.561 91.8115 281.006 91.6773L279.346 91.2598C278.062 90.9467 277.047 90.4571 276.303 89.7911C275.559 89.1251 275.189 88.228 275.194 87.0998C275.189 86.1754 275.435 85.3677 275.931 84.6769C276.432 83.986 277.119 83.4468 277.992 83.0591C278.865 82.6714 279.857 82.4776 280.969 82.4776C282.1 82.4776 283.087 82.6714 283.93 83.0591C284.778 83.4468 285.438 83.986 285.909 84.6769C286.381 85.3677 286.624 86.1679 286.639 87.0775H283.551ZM297.282 87.0775C297.222 86.4761 296.967 86.0089 296.515 85.6759C296.064 85.3429 295.451 85.1764 294.677 85.1764C294.151 85.1764 293.707 85.2509 293.345 85.4001C292.983 85.5442 292.705 85.7454 292.512 86.0039C292.323 86.2624 292.229 86.5556 292.229 86.8836C292.219 87.1569 292.276 87.3955 292.4 87.5993C292.529 87.8031 292.705 87.9796 292.928 88.1286C293.152 88.2727 293.41 88.3995 293.702 88.5088C293.995 88.6133 294.308 88.7027 294.64 88.7772L296.009 89.1053C296.674 89.2543 297.284 89.4531 297.84 89.7017C298.395 89.9501 298.876 90.2558 299.283 90.6187C299.69 90.9815 300.005 91.4089 300.228 91.901C300.456 92.393 300.573 92.9571 300.578 93.5933C300.573 94.5276 300.335 95.3378 299.864 96.0237C299.397 96.7046 298.723 97.2338 297.84 97.6116C296.962 97.9844 295.902 98.1708 294.662 98.1708C293.432 98.1708 292.36 97.9818 291.448 97.6042C290.54 97.2264 289.83 96.6673 289.319 95.9268C288.813 95.1813 288.548 94.2592 288.523 93.1608H291.641C291.676 93.6728 291.822 94.1002 292.08 94.4431C292.343 94.7811 292.693 95.037 293.129 95.2111C293.571 95.38 294.069 95.4645 294.625 95.4645C295.171 95.4645 295.645 95.385 296.046 95.226C296.453 95.067 296.768 94.8458 296.991 94.5625C297.215 94.2792 297.326 93.9536 297.326 93.5859C297.326 93.2429 297.224 92.9546 297.021 92.721C296.823 92.4875 296.53 92.2886 296.143 92.1246C295.761 91.9606 295.292 91.8115 294.737 91.6773L293.077 91.2598C291.792 90.9467 290.778 90.4571 290.034 89.7911C289.29 89.1251 288.92 88.228 288.925 87.0998C288.92 86.1754 289.166 85.3677 289.662 84.6769C290.163 83.986 290.85 83.4468 291.723 83.0591C292.596 82.6714 293.588 82.4776 294.699 82.4776C295.83 82.4776 296.818 82.6714 297.661 83.0591C298.509 83.4468 299.169 83.986 299.64 84.6769C300.112 85.3677 300.355 86.1679 300.37 87.0775H297.282ZM319.045 90.2534V91.7518C318.192 91.7518 317.597 91.9234 317.259 92.2663C316.927 92.6092 316.761 93.1634 316.761 93.9288V95.5838C316.761 96.5033 316.632 97.2413 316.374 97.798C316.121 98.3497 315.764 98.7671 315.302 99.0504C314.846 99.3337 314.303 99.5226 313.673 99.6171C313.048 99.7115 312.358 99.7588 311.604 99.7588V97.3805C312.189 97.3805 312.633 97.306 312.936 97.1569C313.244 97.0028 313.452 96.7691 313.561 96.456C313.67 96.138 313.725 95.7403 313.725 95.2633V93.0863C313.725 92.7036 313.794 92.3433 313.933 92.0053C314.072 91.6624 314.33 91.3617 314.707 91.1032C315.084 90.8399 315.622 90.6336 316.322 90.4844C317.021 90.3303 317.929 90.2534 319.045 90.2534ZM311.604 80.8896C312.358 80.8896 313.048 80.9369 313.673 81.0313C314.303 81.1257 314.846 81.3146 315.302 81.5979C315.764 81.8812 316.121 82.3012 316.374 82.8578C316.632 83.4095 316.761 84.1451 316.761 85.0646V86.7122C316.761 87.4775 316.927 88.0317 317.259 88.3747C317.597 88.7176 318.192 88.889 319.045 88.889V90.3876C317.929 90.3876 317.021 90.313 316.322 90.1639C315.622 90.0098 315.084 89.8035 314.707 89.5451C314.33 89.2817 314.072 88.981 313.933 88.6431C313.794 88.3001 313.725 87.9398 313.725 87.562V85.3852C313.725 84.903 313.67 84.5054 313.561 84.1923C313.452 83.8742 313.244 83.6406 312.936 83.4915C312.633 83.3374 312.189 83.2604 311.604 83.2604V80.8896ZM319.045 88.889V91.7518H316.374V88.889H319.045Z" 
fill="#374785">
   <animateTransform
      attributeType="xml" 
      attributeName="transform"
      type="translate"
      dur="5s"
      values="0,0; 25,0; 50,0; 25,0; 0,0"
      keyTimes="0; 0.1; 0.4; 0.6; 1"
      repeatCount="indefinite"
      />
</path>

<path d="M242.024 100.054H144.586C141.692 100.054 139.347 102.404 139.347 105.302V128.395C139.347 131.294 141.692 133.644 144.586 133.644H242.024C244.917 133.644 247.262 131.294 247.262 128.395V105.302C247.262 102.404 244.917 100.054 242.024 100.054Z" 
fill="#FCB3AD">
    <animateTransform
      attributeType="xml" 
      attributeName="transform"
      type="translate"
      dur="5s"
      values="0,0; 0,-25; 0,0; 0,0; 0,25;0,25; 0,0"
      keyTimes="0; 0.08; 0.35; 0.4; 0.5; 0.6 ;1"
      repeatCount="indefinite"
      />
</path>
<path d="M145.421 117.972V115.347L155.898 110.725V113.744L148.724 116.63L148.821 116.473V116.846L148.724 116.689L155.898 119.574V122.594L145.421 117.972ZM163.955 124.197V108.928H167.177V115.228H173.718V108.928H176.932V124.197H173.718V117.89H167.177V124.197H163.955ZM179.008 111.59V108.928H191.524V111.59H186.859V124.197H183.674V111.59H179.008ZM193.586 108.928H197.559L201.756 119.187H201.935L206.131 108.928H210.105V124.197H206.98V114.259H206.853L202.91 124.122H200.781L196.837 114.222H196.711V124.197H193.586V108.928ZM212.76 124.197V108.928H215.982V121.535H222.515V124.197H212.76ZM240.534 117.972L230.057 122.594V119.574L237.23 116.689L237.133 116.846V116.473L237.23 116.63L230.057 113.744V110.725L240.534 115.347V117.972Z" 
fill="white">
  <animateTransform
      attributeType="xml" 
      attributeName="transform"
      type="translate"
      dur="5s"
      values="0,0; 0,-25; 0,0; 0,25; 0,0"
      keyTimes="0; 0.10; 0.4; 0.6; 1"
      repeatCount="indefinite"
      />
</path>

</g>
<defs>
<linearGradient id="paint0_linear_171_90" x1="1.77514e-06" y1="84.8334" x2="483" y2="84.8334" gradientUnits="userSpaceOnUse">
<stop stop-color="#A8D0E6"/>
<stop offset="1" stop-color="#FCB3AD"/>
</linearGradient>
<clipPath id="clip0_171_90">
<rect width="483" height="169" fill="white" transform="translate(0 0.333374)"/>
</clipPath>


<clipPath id="clip1_171_90">
<rect width="89.0564" height="33.5901" fill="white" transform="translate(235.738 73.8116)"/>
</clipPath>


<clipPath id="clip2_171_90">
<rect width="107.915" height="33.5901" fill="white" transform="translate(139.347 100.054)"/>
</clipPath>
</defs>
</svg>
